<?xml version="1.0" standalone="no"?>
<!DOCTYPE svg PUBLIC "-//W3C//DTD SVG 20010904//EN"
 "http://www.w3.org/TR/2001/REC-SVG-20010904/DTD/svg10.dtd">
<svg version="1.0" xmlns="http://www.w3.org/2000/svg"
 width="1200.000000pt" height="1200.000000pt" viewBox="0 0 1200.000000 1200.000000"
 preserveAspectRatio="xMidYMid meet">
<metadata>
Created by potrace 1.14, written by Peter Selinger 2001-2017
</metadata>
<g transform="translate(0.000000,1200.000000) scale(0.100000,-0.100000)"
fill="#000000" stroke="none">
<path d="M5570 11489 c-47 -5 -105 -10 -130 -13 -25 -3 -70 -7 -100 -10 -30
-3 -71 -8 -90 -11 -19 -3 -51 -8 -70 -10 -84 -11 -105 -14 -105 -15 0 -3 -211
-41 -227 -41 -10 0 -20 -4 -23 -9 -3 -5 -12 -7 -20 -3 -8 3 -15 1 -15 -5 0 -5
-13 -8 -30 -7 -16 1 -30 -1 -30 -6 0 -4 -8 -8 -17 -8 -25 -1 -55 -7 -75 -15
-9 -4 -22 -5 -28 -1 -5 3 -10 2 -10 -3 0 -5 -18 -12 -40 -16 -22 -3 -40 -10
-40 -15 0 -4 -11 -6 -25 -3 -14 2 -25 0 -25 -5 0 -9 -7 -11 -47 -14 -10 -1
-23 -6 -30 -11 -7 -5 -16 -7 -22 -4 -5 3 -11 3 -13 -2 -1 -4 -30 -16 -63 -26
-33 -10 -71 -23 -85 -29 -14 -5 -29 -11 -35 -12 -5 -1 -12 -3 -15 -4 -3 -2
-12 -4 -20 -6 -8 -2 -28 -9 -45 -16 -16 -7 -32 -13 -35 -13 -3 -1 -9 -4 -15
-7 -5 -4 -28 -12 -50 -19 -22 -7 -53 -20 -70 -28 -16 -9 -34 -16 -40 -17 -5 0
-36 -13 -69 -28 -32 -15 -62 -27 -67 -27 -5 0 -9 -5 -9 -11 0 -5 -4 -8 -8 -5
-8 5 -196 -84 -219 -104 -7 -6 -15 -10 -18 -10 -12 1 -150 -72 -157 -83 -4 -7
-8 -9 -8 -4 0 4 -10 1 -23 -8 -13 -8 -27 -12 -30 -8 -4 3 -7 1 -7 -4 0 -6 -30
-28 -67 -49 -38 -20 -70 -40 -73 -43 -3 -4 -22 -15 -42 -26 -21 -11 -38 -23
-38 -27 0 -5 -6 -8 -14 -8 -7 0 -19 -7 -26 -15 -7 -9 -15 -14 -17 -11 -2 2
-16 -7 -30 -20 -14 -13 -30 -24 -35 -24 -5 0 -16 -6 -23 -12 -25 -23 -40 -33
-67 -47 -15 -8 -44 -29 -64 -48 -20 -18 -39 -33 -41 -33 -3 0 -22 -13 -43 -30
-21 -16 -41 -30 -44 -30 -3 0 -15 -8 -25 -17 -56 -52 -70 -63 -79 -63 -5 0
-20 -13 -33 -30 -13 -16 -29 -30 -34 -30 -6 0 -23 -14 -37 -30 -15 -17 -29
-30 -30 -28 -9 7 -501 -472 -494 -480 2 -2 -18 -24 -45 -50 -27 -25 -47 -47
-45 -49 3 -4 -14 -23 -85 -99 -16 -17 -29 -35 -29 -39 0 -4 -11 -18 -26 -31
-14 -13 -22 -24 -19 -24 4 0 0 -7 -7 -15 -7 -8 -21 -25 -30 -37 -10 -13 -42
-55 -73 -95 -30 -39 -55 -76 -55 -81 0 -6 -7 -13 -16 -16 -8 -3 -13 -10 -10
-15 3 -5 -1 -12 -10 -15 -8 -3 -12 -10 -9 -16 3 -5 2 -10 -4 -10 -6 0 -17 -16
-26 -35 -9 -19 -27 -46 -40 -60 -13 -14 -21 -25 -18 -25 3 0 -1 -8 -9 -17 -8
-10 -26 -37 -38 -60 -13 -24 -28 -43 -32 -43 -5 0 -6 -4 -3 -10 3 -5 1 -10 -5
-10 -6 0 -9 -4 -5 -9 3 -5 1 -12 -4 -15 -12 -8 -76 -119 -73 -128 1 -5 -3 -8
-8 -8 -6 0 -10 -6 -10 -14 0 -8 -4 -16 -8 -18 -10 -4 -157 -300 -154 -310 1
-5 -2 -8 -7 -8 -8 0 -32 -55 -36 -80 0 -3 -7 -16 -15 -30 -13 -23 -38 -82 -44
-105 -1 -5 -9 -23 -18 -40 -8 -16 -25 -59 -37 -95 -13 -36 -27 -71 -33 -77 -6
-7 -8 -13 -4 -13 4 0 -1 -14 -9 -31 -9 -17 -14 -33 -11 -37 3 -3 2 -10 -3 -16
-5 -6 -19 -45 -32 -86 -12 -41 -25 -77 -28 -80 -7 -6 -13 -26 -16 -55 -1 -11
-7 -33 -14 -49 -6 -16 -10 -35 -7 -43 3 -7 1 -13 -3 -13 -10 0 -43 -121 -42
-152 0 -10 -4 -18 -9 -18 -4 0 -7 -8 -5 -17 1 -10 -1 -22 -5 -28 -7 -10 -10
-29 -11 -72 -1 -13 -4 -23 -8 -23 -4 0 -16 -53 -26 -117 -11 -65 -22 -120 -25
-123 -3 -3 -6 -18 -7 -35 -1 -16 -4 -48 -8 -70 -3 -22 -7 -56 -8 -75 -1 -19
-5 -40 -9 -46 -4 -6 -6 -27 -4 -47 2 -21 0 -37 -5 -37 -4 0 -8 -21 -8 -47 1
-27 -4 -95 -10 -153 -6 -58 -10 -244 -11 -415 0 -269 6 -392 26 -595 10 -95
11 -105 14 -110 1 -3 4 -21 6 -40 4 -54 12 -113 17 -135 3 -11 10 -55 17 -98
7 -43 17 -80 21 -83 4 -2 6 -10 3 -18 -3 -7 0 -33 6 -57 10 -42 17 -72 24
-114 2 -11 4 -20 5 -20 2 0 4 -5 14 -55 11 -48 48 -195 54 -210 4 -8 5 -18 5
-22 -1 -5 2 -8 7 -8 5 0 8 -8 6 -17 -1 -10 2 -24 8 -31 5 -6 6 -12 2 -12 -4 0
-2 -7 5 -15 6 -8 9 -19 5 -25 -3 -5 -2 -10 2 -10 5 0 17 -30 27 -67 11 -38 23
-74 29 -80 5 -7 6 -13 2 -13 -4 0 -2 -7 5 -15 7 -8 9 -15 5 -15 -4 0 -2 -7 5
-15 7 -8 9 -15 5 -15 -4 0 -3 -6 3 -13 6 -6 20 -41 33 -77 12 -36 29 -78 37
-95 9 -16 15 -36 14 -43 -2 -6 2 -12 8 -12 5 0 10 -6 10 -12 0 -7 12 -38 27
-68 14 -30 27 -60 27 -66 1 -16 170 -348 179 -352 4 -2 7 -9 7 -17 0 -7 7 -18
15 -25 8 -6 13 -15 12 -18 -1 -4 15 -35 36 -70 20 -35 37 -67 37 -73 0 -5 5
-9 11 -9 5 0 8 -4 4 -9 -3 -6 0 -13 7 -18 7 -4 22 -25 33 -45 11 -21 23 -38
27 -38 5 0 8 -5 8 -11 0 -6 16 -33 35 -59 19 -26 35 -52 35 -58 0 -5 7 -13 16
-16 8 -3 13 -10 9 -15 -3 -6 3 -14 12 -20 10 -6 15 -11 11 -11 -4 0 -1 -8 6
-17 51 -63 84 -112 78 -119 -4 -4 -2 -4 4 -1 6 3 18 -7 28 -24 9 -16 22 -29
27 -29 6 0 7 -4 4 -10 -3 -5 6 -19 20 -32 14 -12 25 -27 25 -33 0 -6 9 -17 20
-25 11 -8 20 -20 20 -26 0 -6 13 -22 30 -35 16 -13 30 -29 30 -34 0 -6 8 -18
18 -27 9 -8 39 -42 67 -74 91 -108 545 -556 545 -539 0 4 14 -9 32 -29 17 -20
37 -36 42 -36 6 0 20 -11 30 -25 10 -13 22 -23 25 -20 4 2 18 -9 31 -26 14
-16 29 -29 34 -29 5 0 16 -7 25 -15 23 -22 160 -125 167 -125 6 0 27 -17 54
-44 11 -11 20 -16 20 -10 0 5 5 1 11 -9 6 -9 14 -15 20 -12 5 4 12 -1 15 -9 3
-9 11 -16 16 -16 6 0 32 -16 58 -35 26 -19 53 -35 59 -35 6 0 11 -3 11 -8 0
-4 17 -16 38 -27 20 -11 41 -26 45 -33 5 -7 12 -10 18 -7 5 4 9 1 9 -6 0 -7 3
-10 6 -7 3 4 41 -16 85 -43 43 -27 79 -46 79 -42 0 5 4 3 8 -3 9 -14 141 -84
158 -84 7 0 14 -3 16 -8 3 -8 197 -106 213 -108 6 0 42 -16 80 -34 39 -18 72
-34 75 -34 7 -2 170 -65 200 -79 14 -6 28 -11 33 -13 4 -1 9 -3 12 -4 3 -1 10
-4 15 -5 6 -1 12 -4 15 -5 3 -1 10 -4 15 -5 6 -1 13 -4 18 -5 4 -2 12 -4 17
-5 6 -1 24 -7 40 -14 17 -7 42 -15 58 -18 15 -3 27 -9 27 -14 0 -5 7 -6 15 -3
8 4 15 2 15 -3 0 -5 8 -9 18 -10 18 -1 57 -10 57 -13 0 -1 7 -3 15 -5 8 -3 67
-18 130 -35 63 -17 124 -33 135 -34 11 -2 21 -5 23 -6 1 -1 10 -3 20 -5 9 -1
25 -5 34 -9 9 -4 22 -5 28 -1 5 3 10 2 10 -4 0 -5 8 -9 18 -9 9 0 67 -9 127
-22 61 -12 117 -22 125 -22 8 0 22 -2 30 -5 14 -6 57 -11 128 -15 17 -1 32 -5
32 -9 0 -4 21 -7 48 -8 26 0 70 -3 97 -6 220 -23 319 -26 662 -23 236 3 386 8
395 14 7 6 37 9 66 8 28 -2 52 1 52 5 0 5 19 7 42 5 23 -1 47 0 52 4 6 4 25 8
41 8 17 1 32 3 35 4 3 1 21 4 40 5 19 1 42 5 50 8 8 4 38 9 65 12 73 7 229 38
235 45 3 4 16 7 30 7 25 1 65 10 65 14 0 1 9 3 20 4 11 2 65 15 120 30 55 15
112 30 128 33 15 2 27 8 27 12 0 5 8 7 18 5 9 -1 23 2 30 8 6 5 12 6 12 2 0
-4 7 -2 15 5 8 6 19 9 25 5 5 -3 10 -2 10 2 0 5 19 14 43 20 23 6 56 17 72 24
17 7 35 13 40 14 6 1 12 3 15 4 3 2 12 4 20 6 8 2 29 9 45 16 17 7 32 13 35
14 3 1 18 7 33 13 16 7 30 12 32 12 2 0 16 5 32 12 15 6 30 12 33 13 3 0 15 6
26 13 12 6 24 8 28 5 3 -3 6 -1 6 6 0 7 5 9 10 6 6 -3 10 -1 10 4 0 6 7 11 15
11 14 0 85 30 95 40 3 3 12 6 20 8 21 4 204 95 211 105 3 5 8 8 10 6 7 -4 154
72 161 84 4 7 8 9 8 5 0 -4 26 8 58 27 31 19 63 35 70 35 6 0 12 4 12 9 0 5
14 14 30 21 17 7 30 15 30 19 0 3 18 15 40 25 22 11 40 23 40 28 0 4 6 8 14 8
7 0 19 7 26 15 7 8 16 13 20 10 4 -3 10 1 13 8 3 8 21 22 41 31 20 9 36 22 36
28 0 6 3 9 6 5 3 -3 25 9 48 26 23 18 55 41 70 52 15 11 50 37 76 58 26 20 51
37 54 37 3 0 15 8 25 18 73 66 91 82 91 75 0 -5 11 4 24 20 13 15 28 27 33 27
5 0 24 16 41 36 18 20 32 32 32 28 0 -4 20 13 45 38 24 25 46 44 47 42 4 -3
366 360 436 438 23 26 42 50 42 55 1 4 14 19 30 33 17 13 30 28 30 33 0 5 12
20 28 33 15 13 23 24 19 24 -5 0 8 16 27 35 20 19 34 35 30 35 -3 0 1 7 8 15
17 19 38 46 103 135 30 41 60 80 65 87 6 7 10 15 10 18 0 3 9 16 21 28 11 12
27 36 36 54 8 18 25 44 38 58 13 14 21 25 18 25 -3 0 1 8 9 18 8 9 26 36 38
60 13 23 28 42 32 42 5 0 6 5 3 10 -3 6 -1 10 5 10 6 0 9 4 5 9 -3 5 -1 12 5
16 6 3 20 25 31 48 12 23 24 44 28 47 3 3 24 39 45 80 22 41 44 78 50 82 6 4
8 8 4 8 -4 0 16 46 45 103 28 56 50 105 49 110 -1 4 2 7 7 7 7 0 26 42 36 80
1 3 15 32 30 65 16 33 28 66 26 73 -1 6 3 12 9 12 6 0 9 4 6 9 -4 5 -3 11 2
13 6 2 92 220 98 248 0 3 3 12 7 20 3 8 16 49 29 90 13 41 26 77 31 78 4 2 4
8 1 13 -3 6 -1 15 4 22 5 7 10 20 11 30 3 40 5 47 14 47 5 0 7 11 5 25 -3 14
-1 25 3 25 5 0 12 18 15 40 4 22 10 40 15 40 5 0 6 7 3 15 -3 8 -2 20 2 27 4
7 9 22 11 33 5 35 10 60 12 60 2 0 4 10 7 23 2 12 6 32 8 45 3 12 5 22 7 22 1
0 3 9 5 20 9 52 43 230 44 230 1 0 5 26 15 110 3 22 6 55 7 73 1 17 5 32 8 32
4 0 7 17 8 38 1 37 5 76 22 257 11 125 11 709 -1 830 -12 133 -18 205 -20 253
-1 23 -5 42 -9 42 -3 0 -7 15 -8 33 -3 54 -10 122 -12 125 -3 3 -4 8 -19 100
-8 45 -17 85 -22 88 -4 2 -6 10 -3 18 3 7 0 33 -6 57 -6 24 -11 52 -11 62 0 9
-3 17 -7 17 -4 0 -8 10 -8 23 -1 12 -4 33 -8 47 -3 14 -8 34 -10 45 -24 104
-52 201 -58 203 -5 2 -6 8 -2 13 3 5 2 15 -3 22 -4 6 -8 17 -10 22 -7 31 -55
187 -70 225 -4 8 -7 17 -7 20 -1 3 -5 11 -9 18 -5 6 -6 12 -2 12 3 0 -1 13 -9
29 -9 16 -12 31 -9 35 4 3 2 6 -4 6 -5 0 -16 19 -22 43 -7 23 -20 58 -29 77
-8 19 -16 37 -17 40 -19 54 -70 165 -77 168 -4 2 -4 10 -1 18 3 8 0 14 -7 14
-6 0 -9 4 -5 9 3 5 -1 16 -9 24 -8 8 -16 23 -18 33 -2 10 -9 25 -15 32 -7 7
-13 20 -13 28 0 8 -4 14 -10 14 -5 0 -9 3 -7 8 4 12 -105 222 -115 222 -5 0
-7 4 -3 9 3 5 -2 16 -10 24 -8 9 -15 18 -15 20 0 7 -82 150 -89 157 -3 3 -15
21 -25 40 -10 19 -39 63 -63 97 -23 34 -43 66 -43 72 0 6 -4 11 -10 11 -5 0
-10 5 -10 11 0 5 -13 27 -28 47 -16 20 -53 70 -83 110 -29 39 -57 72 -62 72
-4 0 -5 4 -2 10 3 5 -6 19 -20 32 -14 12 -25 27 -25 33 0 6 -9 17 -20 25 -11
8 -20 20 -20 26 0 6 -13 22 -30 35 -16 13 -30 29 -30 35 0 6 -10 20 -22 31
-13 12 -41 43 -63 69 -45 56 -447 464 -456 464 -3 0 -26 19 -51 43 -80 75
-106 97 -115 97 -4 0 -19 14 -32 30 -13 17 -29 30 -36 30 -8 0 -22 11 -33 25
-11 13 -22 22 -25 19 -3 -3 -10 4 -17 15 -6 12 -15 21 -21 21 -9 0 -63 38
-211 152 -20 15 -42 28 -47 28 -6 0 -11 5 -11 10 0 6 -6 10 -14 10 -7 0 -25
11 -40 25 -14 13 -29 25 -31 25 -3 0 -29 16 -59 35 -30 19 -59 35 -65 35 -5 0
-11 4 -13 8 -3 8 -145 92 -155 92 -2 0 -11 7 -20 15 -8 8 -19 13 -24 10 -5 -4
-9 -2 -9 4 0 10 -139 81 -158 81 -6 0 -12 4 -14 8 -4 10 -180 96 -190 94 -5
-1 -8 2 -8 8 0 5 -7 10 -15 10 -9 0 -37 11 -64 25 -27 13 -51 21 -55 18 -3 -4
-6 -1 -6 6 0 7 -4 9 -10 6 -5 -3 -10 -1 -10 5 0 6 -6 10 -12 9 -7 -1 -39 10
-70 24 -32 15 -70 29 -85 33 -15 3 -38 13 -50 20 -13 8 -23 12 -23 8 0 -4 -7
-1 -15 6 -8 7 -15 9 -15 5 0 -4 -7 -2 -15 5 -8 6 -19 9 -25 5 -5 -3 -10 -2
-10 2 0 5 -31 17 -70 28 -38 11 -70 23 -70 28 0 4 -4 5 -10 2 -5 -3 -16 -3
-22 2 -7 4 -17 9 -23 10 -5 1 -19 4 -30 7 -11 2 -20 5 -20 6 0 2 -35 11 -55
14 -9 1 -20 5 -26 9 -6 3 -31 11 -55 17 -24 6 -53 13 -64 16 -11 3 -31 7 -45
10 -38 9 -42 10 -88 23 -23 6 -47 9 -52 6 -6 -3 -10 -2 -10 4 0 5 -8 9 -17 9
-10 0 -67 9 -128 22 -60 12 -117 22 -125 22 -8 0 -22 2 -30 5 -8 3 -31 7 -50
9 -19 2 -51 5 -70 8 -51 8 -161 20 -335 36 -120 11 -726 10 -845 -1z m682
-825 c5 -5 109 -12 208 -15 19 0 42 -3 50 -6 8 -3 35 -8 60 -9 74 -6 125 -12
125 -14 0 -2 14 -4 30 -5 17 -1 37 -5 46 -9 10 -4 23 -6 30 -5 8 1 21 0 29 -4
8 -3 47 -11 85 -17 39 -6 77 -14 85 -17 16 -6 31 -9 70 -15 14 -3 31 -8 38
-12 7 -4 16 -5 21 -1 5 3 13 0 16 -6 4 -5 13 -8 21 -5 7 3 16 2 18 -3 3 -4 41
-16 85 -26 45 -11 81 -23 81 -28 0 -4 5 -5 10 -2 6 4 17 2 24 -4 7 -6 25 -12
40 -13 14 -1 26 -6 26 -11 0 -4 6 -7 13 -5 6 1 21 -3 32 -8 11 -6 43 -17 70
-24 28 -7 57 -19 66 -27 9 -7 19 -10 22 -7 4 4 13 1 21 -5 8 -7 19 -10 25 -7
5 3 11 1 13 -5 2 -7 13 -13 24 -14 10 -1 51 -17 89 -35 39 -18 73 -34 78 -35
4 -2 9 -4 12 -5 3 -1 8 -3 13 -4 4 -1 14 -6 22 -11 24 -15 155 -77 159 -75 2
1 7 -2 10 -7 3 -4 34 -21 69 -38 35 -16 68 -35 74 -42 5 -7 14 -10 19 -7 5 3
9 1 9 -4 0 -6 11 -13 25 -16 14 -4 25 -11 25 -16 0 -6 6 -10 14 -10 8 0 21 -6
28 -13 15 -15 49 -31 61 -29 4 1 7 -3 7 -8 0 -6 12 -16 28 -23 15 -6 36 -20
46 -29 11 -10 25 -18 32 -18 6 0 15 -7 18 -16 3 -8 10 -12 16 -9 6 3 13 -1 16
-9 3 -9 11 -16 18 -16 6 0 30 -15 53 -33 23 -17 64 -48 90 -67 26 -19 51 -39
55 -45 4 -5 8 -6 8 -1 0 4 13 -5 29 -20 51 -50 81 -75 81 -67 0 4 10 -2 23
-14 12 -12 44 -42 70 -67 27 -25 51 -46 54 -46 13 0 226 -206 320 -310 57 -63
117 -128 134 -145 16 -16 29 -33 29 -37 0 -3 15 -22 33 -41 17 -18 39 -45 47
-58 8 -13 28 -36 44 -51 15 -15 25 -28 22 -28 -3 0 1 -8 9 -17 27 -34 70 -92
105 -143 19 -28 45 -64 58 -79 12 -16 22 -34 22 -40 0 -6 4 -11 8 -11 5 0 16
-17 25 -38 9 -21 26 -48 37 -60 12 -12 18 -22 15 -22 -4 0 3 -12 14 -26 12
-15 21 -33 21 -40 0 -8 4 -14 10 -14 5 0 12 -11 16 -25 3 -14 10 -25 16 -25 5
0 7 -4 3 -9 -3 -5 -1 -13 5 -16 10 -6 69 -116 71 -132 1 -5 10 -20 20 -35 10
-14 19 -30 19 -35 0 -4 18 -42 39 -85 22 -42 37 -79 34 -82 -4 -3 -1 -6 5 -6
7 0 11 -3 10 -7 -1 -5 11 -35 27 -68 15 -33 29 -69 30 -79 1 -11 7 -22 14 -24
6 -2 8 -8 5 -13 -3 -6 -2 -15 3 -22 5 -7 22 -50 37 -97 15 -47 30 -92 34 -100
3 -8 4 -18 4 -22 -1 -5 3 -8 9 -8 6 0 9 -7 6 -15 -4 -8 -2 -17 4 -21 6 -3 8
-12 5 -20 -3 -8 -2 -14 3 -14 4 0 16 -36 27 -80 10 -44 22 -80 26 -80 4 0 5
-6 2 -14 -3 -8 -1 -17 5 -20 6 -4 8 -13 5 -20 -3 -8 0 -17 5 -21 6 -3 9 -11 6
-16 -4 -5 -3 -15 1 -21 5 -7 9 -19 10 -28 6 -38 12 -66 17 -80 3 -8 13 -53 21
-100 9 -47 19 -98 22 -115 3 -16 5 -42 5 -57 -1 -15 3 -29 8 -32 5 -3 7 -22 5
-41 -1 -19 0 -35 5 -35 4 0 6 -21 6 -47 -1 -27 2 -52 6 -58 4 -5 7 -28 8 -50
1 -22 4 -78 8 -125 10 -116 10 -576 0 -680 -4 -47 -8 -106 -9 -132 -1 -27 -4
-48 -8 -48 -3 0 -6 -20 -5 -45 1 -25 -1 -48 -5 -50 -4 -3 -6 -19 -5 -37 2 -18
0 -37 -3 -43 -4 -5 -7 -21 -8 -35 -1 -14 -4 -32 -7 -40 -3 -8 -13 -60 -22
-115 -9 -55 -19 -107 -22 -115 -3 -8 -7 -22 -8 -30 -1 -8 -5 -26 -8 -40 -3
-14 -8 -36 -11 -50 -3 -14 -10 -36 -15 -50 -5 -14 -20 -67 -32 -117 -13 -51
-27 -93 -32 -93 -4 0 -5 -5 -2 -10 4 -6 1 -17 -5 -25 -7 -8 -9 -15 -5 -15 4 0
2 -6 -4 -14 -6 -8 -11 -18 -10 -22 1 -5 -3 -22 -10 -39 -7 -16 -18 -49 -24
-72 -6 -24 -15 -43 -20 -43 -4 0 -5 -4 -2 -10 3 -5 1 -10 -5 -10 -6 0 -8 -4
-5 -10 3 -5 -1 -22 -9 -38 -8 -16 -12 -32 -9 -36 4 -3 2 -6 -3 -6 -6 0 -21
-29 -33 -65 -13 -36 -27 -68 -32 -71 -5 -3 -7 -10 -4 -15 4 -5 1 -9 -6 -9 -7
0 -10 -3 -7 -6 3 -3 -14 -46 -38 -95 -24 -49 -43 -92 -43 -95 0 -4 -3 -10 -8
-13 -4 -3 -19 -31 -33 -61 -14 -30 -35 -69 -47 -87 -12 -18 -19 -33 -15 -33 4
0 2 -4 -4 -8 -6 -4 -23 -31 -38 -59 -14 -29 -32 -53 -38 -53 -6 0 -8 -3 -5 -7
4 -3 2 -12 -4 -20 -6 -7 -9 -13 -6 -13 3 0 -5 -12 -19 -27 -13 -14 -27 -37
-30 -50 -4 -13 -10 -23 -15 -23 -5 0 -9 -7 -9 -15 0 -7 -8 -19 -17 -24 -10 -6
-14 -11 -10 -11 4 0 3 -6 -3 -12 -28 -34 -130 -177 -130 -183 0 -7 -32 -45
-62 -73 -10 -9 -18 -21 -18 -27 0 -6 -9 -17 -20 -25 -11 -8 -20 -19 -20 -25 0
-6 -13 -22 -30 -35 -16 -14 -29 -29 -30 -34 0 -5 -35 -47 -77 -93 -43 -46 -92
-102 -109 -123 -17 -22 -34 -36 -38 -33 -3 3 -6 1 -6 -5 0 -10 -196 -195 -301
-285 -24 -21 -56 -50 -71 -65 -16 -15 -28 -23 -28 -18 0 5 -10 -3 -23 -17 -12
-15 -26 -27 -30 -27 -4 0 -18 -9 -30 -21 -21 -19 -189 -143 -225 -164 -19 -12
-38 -26 -55 -41 -7 -5 -19 -13 -27 -17 -8 -4 -24 -13 -35 -19 -11 -7 -45 -29
-75 -49 -31 -19 -62 -38 -70 -42 -8 -4 -37 -21 -65 -37 -59 -36 -182 -100
-192 -101 -5 0 -16 -8 -27 -17 -10 -9 -20 -16 -22 -14 -2 1 -37 -14 -77 -35
-39 -20 -78 -38 -86 -39 -14 -3 -52 -20 -113 -51 -14 -7 -33 -13 -42 -13 -9 0
-16 -5 -16 -12 0 -6 -3 -8 -7 -5 -3 4 -12 2 -20 -4 -7 -6 -13 -8 -13 -4 0 4
-7 2 -15 -5 -8 -7 -15 -9 -15 -6 0 4 -12 0 -27 -8 -32 -17 -134 -51 -145 -48
-5 1 -8 -3 -8 -9 0 -5 -5 -7 -10 -4 -6 4 -17 1 -25 -5 -8 -7 -15 -9 -15 -5 0
4 -7 2 -15 -5 -8 -6 -19 -9 -25 -5 -5 3 -10 2 -10 -2 0 -5 -42 -19 -92 -32
-51 -13 -98 -28 -104 -32 -6 -5 -14 -6 -17 -3 -3 3 -12 2 -19 -2 -7 -5 -21 -9
-30 -10 -10 -1 -19 -3 -20 -4 -3 -2 -12 -4 -63 -14 -11 -2 -27 -6 -35 -9 -8
-3 -60 -13 -115 -22 -55 -10 -107 -20 -115 -22 -8 -3 -28 -7 -45 -9 -16 -1
-48 -6 -70 -9 -52 -7 -127 -15 -191 -19 -29 -2 -56 -6 -60 -9 -13 -7 -112 -10
-399 -10 -267 -1 -344 3 -575 28 -30 3 -68 7 -85 8 -16 1 -35 6 -42 10 -7 4
-23 5 -38 3 -14 -3 -25 -1 -25 2 0 4 -10 9 -22 10 -46 4 -253 45 -291 58 -12
4 -31 9 -42 10 -11 2 -60 14 -110 29 -49 14 -105 28 -122 31 -18 4 -33 11 -33
16 0 5 -4 6 -10 3 -5 -3 -23 1 -40 10 -16 8 -31 15 -32 14 -7 -4 -155 47 -169
58 -9 7 -18 10 -21 7 -4 -3 -19 1 -36 10 -16 8 -32 12 -36 9 -3 -4 -6 -1 -6 5
0 7 -7 12 -15 12 -8 0 -23 4 -33 10 -19 10 -108 48 -120 51 -4 1 -52 24 -107
52 -55 28 -102 51 -105 52 -16 3 -150 76 -155 85 -3 6 -11 8 -16 5 -5 -4 -9
-1 -9 5 0 6 -5 8 -10 5 -6 -3 -10 -3 -10 2 0 4 -18 17 -40 27 -22 11 -40 23
-40 27 0 6 -24 17 -50 23 -2 1 -15 11 -29 24 -13 12 -35 25 -48 28 -13 4 -23
10 -23 15 0 5 -5 9 -10 9 -6 0 -16 5 -23 10 -39 32 -137 99 -137 93 0 -4 -7 2
-15 13 -8 10 -15 16 -15 12 0 -4 -11 3 -24 15 -38 34 -60 52 -66 52 -3 0 -15
10 -26 22 -12 13 -25 23 -29 23 -4 0 -18 11 -31 26 -13 14 -24 22 -24 18 0 -4
-13 7 -29 23 -16 17 -34 32 -39 34 -6 2 -72 60 -147 128 -118 108 -242 236
-397 411 -22 25 -46 52 -54 61 -8 9 -14 19 -14 23 0 5 -11 17 -25 28 -14 11
-25 24 -25 29 0 5 -8 17 -18 27 -9 11 -26 32 -37 48 -11 16 -31 40 -45 54 -13
14 -22 25 -20 25 2 0 -10 20 -26 44 -16 24 -33 51 -39 59 -14 22 -28 40 -43
57 -6 7 -12 18 -12 24 0 6 -4 11 -9 11 -5 0 -13 10 -17 23 -3 12 -16 35 -28
52 -29 41 -44 66 -58 97 -7 16 -16 28 -20 28 -4 0 -8 7 -8 15 0 8 -5 15 -11
15 -5 0 -7 5 -4 10 3 6 1 10 -6 10 -7 0 -10 3 -7 6 4 3 -4 21 -18 41 -13 19
-29 50 -36 69 -6 19 -16 34 -21 34 -4 0 -5 5 -2 10 3 6 1 10 -5 10 -6 0 -8 5
-5 10 3 6 1 10 -4 10 -6 0 -10 3 -9 8 1 4 -16 41 -37 82 -21 41 -39 77 -40 80
0 3 -11 27 -23 54 -13 28 -25 60 -28 73 -4 13 -10 26 -15 29 -5 3 -9 14 -9 24
0 10 -6 25 -13 32 -6 7 -13 18 -14 23 -1 6 -23 71 -48 145 -25 74 -47 142 -48
150 -1 8 -5 17 -8 20 -3 3 -16 46 -29 95 -13 50 -26 94 -29 100 -3 5 -6 16 -7
25 -4 21 -12 55 -14 55 -1 0 -3 11 -5 25 -2 14 -6 36 -10 50 -6 22 -33 150
-51 245 -3 17 -5 41 -5 54 1 12 -2 28 -6 35 -8 11 -9 21 -17 126 -2 30 -5 57
-7 60 -1 3 -4 28 -6 55 -2 28 -7 84 -10 125 -9 107 -9 557 0 670 4 52 7 110 7
128 0 18 3 38 7 45 4 7 8 32 10 57 1 25 5 63 8 85 3 22 7 54 9 70 2 17 5 30 6
30 2 0 4 14 6 30 1 17 12 73 23 125 29 132 31 142 35 170 2 14 5 25 6 25 1 0
3 7 5 15 26 106 69 255 75 260 4 3 6 13 4 23 -1 9 2 17 7 17 6 0 8 4 4 9 -3 5
0 13 6 16 5 4 8 13 5 21 -3 8 -2 14 2 14 4 0 13 19 19 43 6 23 17 56 24 72 7
17 12 33 11 38 -1 4 3 7 9 7 5 0 7 5 4 10 -4 6 -1 17 5 25 7 8 10 15 6 15 -4
0 1 11 10 25 9 14 14 28 11 32 -4 3 2 18 13 33 11 16 20 35 20 44 0 9 5 16 12
16 6 0 9 3 5 6 -3 4 0 19 9 35 8 16 14 31 14 34 0 3 16 37 35 75 19 38 34 72
33 74 -2 2 6 13 16 25 11 12 17 21 13 21 -3 0 17 42 45 93 70 126 77 138 96
168 9 15 35 57 56 95 22 38 42 71 45 74 3 3 27 38 54 78 26 39 52 72 58 72 5
0 8 4 5 9 -3 5 1 14 9 21 8 7 15 19 15 26 0 8 4 14 8 14 4 0 25 25 47 55 22
30 43 55 48 55 4 0 7 6 7 14 0 7 11 21 24 32 14 10 23 21 20 25 -2 4 7 16 21
27 14 11 25 24 25 28 0 4 13 22 29 38 16 17 57 63 92 101 97 107 274 281 379
372 52 46 104 92 116 103 12 11 25 20 30 20 5 0 16 9 24 20 8 11 18 20 23 20
9 0 45 30 75 63 9 9 20 17 24 17 7 0 144 97 184 129 7 6 15 7 18 4 3 -4 6 -1
6 5 0 10 10 17 88 57 17 10 32 21 32 26 0 5 4 9 9 9 5 0 39 18 76 40 36 23 77
45 91 50 13 5 24 14 24 20 0 5 3 9 8 8 9 -2 145 64 153 75 3 5 8 8 10 7 7 -4
144 64 151 75 4 6 8 6 8 1 0 -5 7 -3 15 4 8 6 19 9 25 5 5 -3 10 -2 10 4 0 5
27 20 60 32 33 12 60 26 60 31 0 5 4 7 9 4 4 -3 27 4 50 15 23 11 46 17 51 14
6 -3 10 -1 10 5 0 6 4 9 9 6 5 -4 11 -3 13 1 3 8 204 77 223 78 6 0 12 3 15 6
3 3 46 16 95 29 50 13 95 27 101 32 6 4 14 5 17 2 3 -3 12 -2 19 2 7 5 20 9
28 9 8 0 21 4 28 8 6 5 17 5 22 2 6 -3 10 -2 10 3 0 5 10 8 23 8 12 -1 27 1
32 4 6 4 60 15 120 25 61 10 115 21 120 25 6 3 21 5 35 4 14 -1 30 2 35 6 6 4
24 7 40 5 17 -1 35 1 40 4 10 6 36 8 146 15 31 2 61 6 65 9 5 2 39 4 77 4 37
0 70 3 74 6 8 8 497 9 505 1z"/>
<path d="M5850 9810 c0 -3 -39 -5 -87 -5 -49 1 -92 -1 -98 -4 -5 -3 -28 -7
-50 -8 -83 -5 -141 -11 -155 -16 -13 -4 -255 -46 -287 -49 -7 -1 -13 -5 -13
-9 0 -4 -10 -6 -21 -4 -12 3 -27 1 -33 -3 -6 -4 -18 -7 -26 -7 -8 0 -20 -3
-25 -7 -6 -4 -42 -14 -80 -23 -38 -8 -75 -21 -83 -28 -8 -6 -17 -11 -19 -9 -1
1 -4 2 -5 1 -10 -3 -46 -11 -63 -13 -11 -2 -21 -5 -22 -6 -2 -1 -6 -3 -10 -4
-5 -1 -17 -7 -28 -13 -11 -6 -39 -16 -61 -22 -23 -6 -63 -20 -88 -32 -25 -11
-48 -20 -51 -20 -2 0 -33 -13 -67 -29 -35 -17 -69 -30 -75 -30 -7 0 -13 -4
-13 -10 0 -5 -7 -10 -15 -10 -8 0 -30 -9 -50 -20 -62 -35 -155 -80 -161 -79
-4 0 -10 -4 -13 -9 -3 -5 -22 -17 -41 -27 -19 -10 -53 -30 -75 -44 -22 -14
-43 -25 -46 -26 -3 0 -13 -8 -23 -17 -10 -10 -24 -18 -32 -18 -8 0 -17 -7 -20
-15 -4 -8 -10 -13 -14 -10 -5 3 -12 -1 -17 -9 -4 -8 -10 -14 -13 -13 -6 2 -82
-50 -126 -87 -19 -15 -34 -25 -34 -22 0 3 -8 -2 -18 -11 -10 -10 -33 -29 -51
-43 -19 -14 -47 -37 -62 -52 -16 -16 -32 -28 -36 -28 -19 0 -453 -435 -453
-455 0 -2 -15 -19 -33 -38 -17 -18 -41 -45 -52 -61 -11 -15 -27 -36 -35 -46
-33 -41 -135 -185 -135 -190 0 -3 -10 -17 -23 -30 -12 -14 -25 -35 -28 -47 -4
-13 -10 -23 -15 -23 -5 0 -9 -6 -9 -13 0 -7 -8 -22 -17 -33 -10 -10 -31 -44
-47 -74 -16 -30 -34 -58 -40 -62 -7 -5 -7 -8 -1 -8 7 0 7 -3 0 -8 -11 -7 -85
-158 -84 -168 0 -4 -3 -10 -8 -13 -11 -7 -63 -124 -63 -140 0 -6 -5 -11 -12
-11 -6 0 -8 -3 -5 -7 4 -3 2 -12 -4 -20 -6 -7 -8 -13 -3 -13 5 0 3 -4 -3 -8
-7 -4 -14 -17 -16 -27 -2 -11 -11 -37 -21 -57 -9 -21 -16 -42 -16 -48 0 -6 -7
-26 -15 -46 -8 -19 -15 -38 -16 -42 -1 -4 -6 -18 -11 -32 -6 -14 -14 -38 -18
-55 -19 -69 -51 -181 -57 -195 -8 -21 -14 -50 -16 -82 0 -16 -5 -28 -10 -28
-4 0 -7 -8 -6 -17 1 -10 -1 -25 -4 -33 -7 -16 -46 -253 -51 -310 -2 -19 -5
-35 -6 -35 -2 0 -6 -51 -15 -205 -10 -158 -6 -580 6 -580 3 0 5 -21 4 -47 0
-27 3 -53 7 -59 5 -6 7 -30 5 -53 -2 -22 0 -41 3 -41 4 0 13 -45 20 -100 7
-56 17 -103 21 -106 4 -2 6 -15 3 -29 -2 -13 0 -26 5 -30 6 -3 8 -12 4 -20 -3
-8 -1 -15 4 -15 5 0 9 -12 10 -27 1 -29 5 -47 17 -74 4 -9 8 -27 10 -40 2 -13
6 -31 8 -39 22 -64 49 -159 50 -177 1 -7 4 -13 8 -13 4 0 7 -6 8 -12 1 -14 37
-119 51 -153 17 -37 24 -60 23 -67 -1 -5 3 -8 9 -8 6 0 9 -6 6 -14 -3 -8 -1
-16 4 -18 6 -2 11 -10 13 -18 2 -8 13 -37 26 -65 13 -27 24 -56 26 -64 1 -8 8
-17 14 -21 7 -4 11 -10 10 -14 -2 -10 73 -160 85 -168 5 -4 6 -8 2 -8 -4 0 -3
-6 3 -12 16 -20 79 -128 74 -128 -3 0 5 -10 16 -22 12 -13 31 -42 42 -65 12
-24 25 -43 30 -43 4 0 8 -6 8 -14 0 -8 4 -16 8 -18 10 -4 72 -94 72 -105 0 -4
9 -14 20 -21 11 -7 20 -18 20 -25 0 -7 9 -18 20 -25 11 -7 20 -18 20 -25 0 -7
9 -19 20 -27 11 -8 20 -18 20 -23 0 -4 10 -19 23 -32 12 -13 40 -45 62 -72 54
-64 328 -338 388 -388 27 -22 59 -49 72 -60 13 -11 38 -31 55 -45 18 -14 43
-35 56 -47 13 -12 24 -20 24 -18 0 6 112 -75 150 -107 14 -11 37 -25 52 -30
16 -6 28 -14 28 -19 0 -5 7 -9 15 -9 9 0 18 -7 21 -15 4 -8 10 -13 14 -10 5 3
13 -3 19 -12 6 -10 11 -15 11 -11 0 4 26 -8 58 -27 31 -19 63 -35 70 -35 6 0
12 -4 12 -9 0 -7 107 -64 135 -71 6 -1 21 -10 35 -19 14 -10 57 -31 95 -47 39
-16 72 -32 73 -36 2 -5 8 -5 14 -2 6 4 13 2 17 -4 4 -7 18 -13 31 -14 14 -2
28 -6 31 -11 11 -15 430 -150 464 -150 8 0 15 -3 15 -6 0 -3 10 -7 23 -8 25
-3 62 -10 62 -14 0 -2 25 -6 70 -13 17 -2 37 -6 45 -9 46 -18 329 -53 510 -63
149 -8 522 -4 540 6 3 2 28 5 55 7 96 6 299 35 355 49 39 11 63 14 88 14 12 0
22 4 22 10 0 5 9 7 20 5 11 -2 22 0 25 5 3 5 14 7 25 5 11 -2 20 0 20 6 0 5 9
9 20 9 27 0 173 40 184 50 5 5 15 6 22 3 8 -3 14 1 14 8 0 7 3 9 7 6 3 -4 12
-2 20 4 7 6 13 9 13 6 0 -8 190 60 206 74 8 6 14 8 14 4 0 -4 11 0 25 9 14 9
25 14 25 12 0 -8 296 130 310 144 3 3 12 6 20 8 8 2 19 10 23 18 4 8 14 14 20
14 7 0 45 20 85 44 40 25 72 42 72 38 0 -4 6 0 13 9 7 9 27 23 45 33 17 9 32
21 32 26 0 6 3 9 8 8 4 -2 36 18 71 42 35 25 71 50 80 55 9 6 20 16 24 23 4 6
14 12 21 12 8 0 16 7 20 15 3 8 11 15 17 15 6 0 22 10 34 23 13 12 37 33 54
47 38 30 104 86 138 118 13 12 28 22 33 22 6 0 10 4 10 8 0 5 53 62 118 128
64 66 133 139 152 162 19 24 46 56 60 72 35 39 58 69 87 113 14 20 30 37 34
37 5 0 9 6 9 14 0 8 3 16 8 18 14 6 101 136 95 142 -4 3 -2 6 3 6 5 0 20 18
34 40 14 22 28 40 33 40 4 0 6 4 3 9 -3 5 1 14 9 21 8 7 12 16 9 21 -3 5 -1 9
3 9 5 0 20 21 33 48 14 26 28 49 33 50 4 2 5 8 1 13 -3 5 -1 9 3 9 5 0 27 37
48 82 22 46 46 89 53 96 6 7 12 22 12 32 0 10 3 20 8 22 4 2 21 37 37 78 16
41 34 78 39 81 5 4 6 14 3 23 -4 9 -2 16 3 16 4 0 16 24 26 53 9 28 20 54 23
57 3 3 7 14 9 25 9 57 15 75 24 75 6 0 8 6 5 14 -3 7 -1 18 3 22 5 5 11 19 13
31 2 13 6 26 10 29 4 4 7 15 7 25 0 10 5 30 11 46 7 15 14 44 16 63 2 19 9 37
15 41 6 4 7 12 3 18 -4 7 -2 17 3 24 5 7 8 20 7 30 -2 9 0 17 4 17 4 0 8 6 8
13 2 24 11 82 17 97 7 19 37 226 38 263 1 15 4 27 7 27 6 0 8 35 13 217 2 57
6 103 9 103 8 0 0 293 -15 500 -2 30 -5 55 -6 55 -2 0 -4 16 -6 35 -4 53 -34
243 -41 260 -5 15 -12 50 -14 80 0 8 -3 22 -6 30 -12 30 -15 45 -15 68 0 12
-3 22 -7 22 -4 0 -8 6 -8 13 -1 21 -37 159 -50 187 -3 8 -8 21 -10 28 -1 6 -5
18 -6 25 -2 6 -7 19 -10 27 -3 8 -15 42 -26 75 -31 92 -47 134 -54 141 -4 4
-7 15 -7 25 0 9 -4 19 -10 21 -5 2 -11 12 -13 23 -2 11 -14 43 -27 70 -13 28
-24 56 -26 64 -1 8 -8 17 -14 21 -7 4 -11 10 -10 14 1 7 -71 158 -81 166 -3 3
-22 37 -43 75 -22 39 -46 78 -54 88 -8 9 -12 17 -8 17 4 0 -2 9 -12 20 -10 11
-25 33 -33 48 -8 15 -17 32 -22 37 -56 73 -105 145 -99 145 4 0 -1 5 -10 11
-10 5 -18 14 -18 19 0 5 -10 20 -22 34 -23 24 -50 58 -85 105 -57 76 -351 375
-457 466 -32 28 -67 59 -77 69 -10 11 -19 17 -19 13 0 -6 -26 12 -55 40 -7 6
-57 43 -111 82 -55 39 -104 75 -111 81 -7 5 -17 10 -23 10 -5 0 -10 5 -10 10
0 6 -6 10 -13 10 -7 0 -24 10 -37 23 -14 12 -26 21 -27 20 -6 -6 -26 -3 -20 3
3 3 -24 22 -61 42 -37 19 -69 38 -72 41 -5 7 -134 70 -148 72 -4 1 -18 9 -32
18 -14 10 -61 33 -105 52 -44 18 -82 36 -85 39 -3 3 -9 6 -15 7 -10 2 -162 58
-200 74 -19 7 -61 21 -77 25 -5 1 -11 3 -15 4 -5 2 -12 4 -18 5 -5 1 -23 7
-40 14 -16 7 -45 15 -62 18 -18 3 -33 10 -33 15 0 5 -5 6 -10 3 -6 -4 -27 -1
-48 6 -20 7 -46 14 -57 15 -25 3 -60 12 -60 15 0 2 -20 6 -165 30 -69 12 -132
24 -140 27 -15 5 -57 9 -145 14 -27 2 -54 6 -60 9 -5 3 -48 5 -95 4 -47 -1
-89 1 -95 4 -13 8 -295 9 -295 1z m230 -730 c0 -4 16 -6 35 -5 19 2 35 -1 35
-5 0 -4 8 -7 18 -6 23 1 172 -56 172 -67 0 -4 5 -5 10 -2 6 3 10 1 10 -6 0 -7
3 -10 6 -6 8 8 94 -51 94 -64 0 -6 4 -8 9 -5 8 5 110 -91 111 -106 1 -4 13
-20 28 -36 15 -16 36 -47 47 -68 11 -21 23 -40 28 -42 4 -2 7 -13 7 -25 0 -12
7 -30 15 -41 8 -10 19 -44 25 -75 6 -31 14 -63 17 -71 10 -29 3 -208 -11 -276
-8 -38 -24 -91 -35 -117 -11 -26 -21 -51 -21 -55 -3 -20 -86 -142 -97 -142 -7
0 -13 -7 -13 -15 0 -25 -185 -179 -202 -169 -5 3 -8 1 -8 -4 0 -8 -102 -53
-152 -67 -5 -2 -9 -3 -10 -5 -23 -18 -224 -30 -298 -17 -25 4 -56 9 -70 11
-14 2 -26 5 -27 6 -2 1 -7 4 -13 5 -5 1 -12 4 -15 5 -3 1 -8 3 -12 4 -5 1 -14
5 -20 9 -7 5 -17 5 -23 2 -5 -3 -10 -2 -10 2 0 5 -19 17 -42 28 -66 28 -188
123 -240 186 -50 61 -104 144 -110 169 -2 8 -6 17 -9 20 -8 8 -49 138 -49 159
0 10 -3 21 -7 25 -4 3 -6 53 -5 110 2 109 21 222 46 270 8 16 13 33 10 38 -3
4 0 8 7 8 7 0 10 3 6 6 -6 6 50 101 78 134 70 80 123 133 158 156 23 16 45 33
49 39 4 5 8 6 8 1 0 -5 9 -1 19 8 11 10 25 19 33 20 7 1 22 7 33 13 40 22 128
52 137 47 5 -3 15 -1 22 5 7 6 22 9 34 6 12 -2 24 0 26 4 6 9 166 10 166 1z
m-2260 -1683 c0 -4 19 -7 43 -7 23 1 112 -6 197 -14 85 -9 182 -17 215 -17 33
-1 64 -4 69 -7 5 -3 37 -7 70 -8 34 -2 97 -5 141 -9 44 -3 114 -7 155 -9 41
-2 77 -5 80 -7 3 -1 37 -4 75 -6 209 -11 273 -14 410 -23 83 -6 201 -10 263
-10 62 0 117 -2 122 -5 24 -15 682 -4 1010 16 85 5 198 11 250 14 180 9 235
12 235 15 0 2 66 6 225 13 41 1 80 5 85 9 6 3 37 5 70 5 34 0 65 2 71 5 5 4
34 7 64 7 30 1 98 6 150 11 196 19 226 22 258 21 18 -1 38 1 44 5 14 9 179 11
184 3 2 -4 22 -9 44 -13 55 -9 124 -75 141 -136 18 -64 18 -70 8 -70 -5 0 -9
-11 -9 -25 0 -16 -16 -42 -42 -70 -35 -37 -57 -50 -123 -72 -44 -14 -91 -25
-104 -24 -12 0 -28 -2 -35 -6 -6 -4 -31 -9 -56 -10 -25 -1 -76 -4 -115 -7 -38
-2 -70 -5 -70 -6 0 -1 -38 -3 -85 -4 -47 -1 -90 -4 -95 -8 -6 -3 -52 -5 -103
-4 -52 0 -96 -2 -98 -6 -2 -3 -37 -7 -77 -7 -179 -3 -712 -34 -754 -45 -13 -3
-32 -8 -42 -10 -11 -3 -31 -12 -45 -21 -14 -10 -26 -15 -26 -11 0 22 -110
-113 -115 -142 -2 -10 -4 -18 -5 -19 -2 -2 -3 -6 -5 -10 -1 -5 -4 -15 -8 -23
-8 -21 -8 -24 -14 -238 -2 -106 -2 -201 2 -210 4 -9 9 -51 11 -92 5 -126 11
-215 14 -215 1 0 4 -22 6 -50 2 -27 6 -68 7 -90 2 -22 6 -47 10 -55 4 -8 5
-32 4 -52 -2 -21 -1 -39 3 -40 3 -2 14 -61 23 -133 9 -71 19 -141 23 -155 7
-31 14 -86 16 -122 1 -16 5 -28 10 -28 5 0 6 -12 4 -27 -3 -15 -2 -32 3 -37 4
-6 19 -74 32 -151 12 -77 26 -141 30 -143 4 -2 5 -10 2 -18 -3 -8 0 -20 6 -27
6 -8 9 -23 6 -35 -2 -12 -1 -22 4 -22 4 0 7 -10 8 -22 1 -13 3 -32 6 -43 15
-55 69 -292 70 -302 0 -7 5 -13 10 -13 5 0 6 -7 3 -16 -3 -9 -3 -21 1 -27 4
-7 8 -16 9 -22 1 -5 12 -46 24 -90 11 -44 23 -87 25 -95 2 -8 10 -34 19 -58 9
-24 15 -46 14 -50 -1 -4 4 -20 11 -36 6 -16 16 -48 21 -71 5 -23 15 -55 21
-71 7 -16 14 -36 16 -44 2 -8 5 -19 6 -25 2 -5 8 -19 14 -30 6 -11 11 -22 11
-25 0 -3 5 -16 10 -30 5 -14 13 -40 16 -57 4 -18 12 -35 17 -38 5 -4 9 -15 9
-26 0 -10 4 -19 8 -19 4 0 9 -9 10 -20 4 -44 6 -50 14 -50 5 0 8 -8 6 -17 -1
-10 1 -23 5 -30 4 -7 17 -53 28 -103 11 -50 20 -95 21 -98 4 -18 -24 -92 -32
-87 -6 4 -10 1 -10 -4 0 -6 -8 -11 -18 -11 -10 0 -39 -10 -64 -23 -26 -13 -53
-22 -62 -21 -9 1 -16 -2 -16 -7 0 -5 -11 -4 -25 1 -14 5 -25 7 -25 4 0 -12
-116 60 -135 84 -11 14 -28 34 -37 44 -10 10 -16 18 -13 18 3 0 -6 17 -19 38
-13 20 -30 54 -37 75 -7 20 -17 37 -22 37 -4 0 -5 5 -2 10 4 6 1 17 -5 25 -7
8 -9 15 -5 15 4 0 1 7 -6 17 -8 9 -13 17 -11 17 2 1 1 8 -2 16 -24 76 -49 166
-48 173 1 4 -1 7 -6 7 -4 0 -8 14 -9 31 -1 17 -6 36 -11 43 -5 6 -8 19 -7 29
2 9 -1 17 -7 17 -6 0 -8 7 -5 15 4 8 2 17 -2 19 -5 3 -14 33 -22 66 -7 33 -16
60 -20 60 -4 0 -5 8 -2 19 3 10 0 22 -6 25 -5 4 -8 13 -4 21 3 8 0 15 -7 15
-7 0 -9 8 -5 20 3 11 2 20 -3 20 -6 0 -9 8 -7 18 1 9 -2 22 -7 28 -5 7 -11 25
-13 40 -5 32 -33 141 -42 164 -8 19 -12 39 -15 68 -1 12 -5 22 -9 22 -3 0 -6
6 -6 13 -1 14 -7 42 -38 172 -9 39 -19 77 -22 85 -4 8 -5 19 -4 24 1 4 -2 13
-7 20 -5 6 -8 19 -7 29 2 9 -2 17 -8 17 -5 0 -8 3 -5 6 3 3 2 21 -4 41 -5 19
-11 45 -14 56 -9 50 -49 172 -56 175 -4 2 -6 7 -4 10 8 13 -50 87 -78 101 -32
15 -86 21 -86 9 0 -4 -9 -8 -19 -8 -19 0 -96 -79 -86 -88 3 -3 0 -11 -6 -19
-6 -7 -8 -13 -4 -13 4 0 2 -7 -5 -15 -7 -8 -9 -15 -5 -15 4 0 2 -6 -4 -14 -6
-8 -11 -18 -10 -22 1 -5 -1 -16 -4 -24 -3 -8 -13 -60 -22 -115 -9 -55 -18
-109 -20 -120 -2 -11 -6 -31 -9 -45 -7 -35 -14 -65 -16 -67 -2 -2 -3 -11 -4
-20 -1 -10 -5 -24 -10 -31 -4 -7 -5 -16 -2 -19 3 -3 1 -12 -4 -19 -6 -6 -10
-16 -9 -20 1 -5 0 -16 -4 -24 -3 -8 -15 -58 -27 -110 -12 -52 -25 -99 -30
-105 -4 -5 -8 -18 -9 -27 0 -10 -2 -26 -2 -35 -1 -10 -5 -22 -9 -28 -4 -5 -18
-48 -30 -95 -12 -46 -25 -90 -31 -96 -5 -6 -6 -13 -3 -16 3 -3 -2 -22 -10 -43
-9 -20 -15 -39 -14 -43 2 -6 -26 -99 -53 -177 -6 -16 -12 -37 -14 -45 -2 -8
-5 -22 -7 -30 -1 -8 -7 -18 -11 -21 -4 -3 -9 -17 -11 -30 -1 -14 -5 -29 -8
-34 -3 -6 -13 -35 -23 -65 -10 -30 -20 -59 -24 -65 -3 -5 -6 -15 -7 -20 -1 -6
-16 -33 -33 -60 -17 -27 -31 -55 -31 -62 0 -7 -4 -13 -10 -13 -5 0 -10 -5 -10
-10 0 -11 -8 -23 -51 -71 -25 -27 -95 -65 -113 -61 -4 2 -13 -1 -20 -5 -6 -5
-31 -8 -56 -7 -75 1 -158 50 -164 96 -2 13 -7 31 -11 41 -4 10 -5 39 -1 65 9
63 13 87 15 87 2 0 7 15 14 48 1 6 6 18 11 25 4 7 5 16 2 19 -3 3 -2 11 3 17
4 6 18 45 30 86 12 41 25 82 28 90 3 8 5 19 4 24 -1 4 4 14 10 22 6 8 8 14 4
14 -4 0 -2 7 5 15 6 8 9 19 5 25 -3 5 -2 10 4 10 5 0 8 11 6 25 -1 14 1 25 5
25 4 0 17 39 30 88 12 48 25 92 29 97 3 6 6 17 7 25 0 8 6 28 12 43 7 16 10
32 7 37 -3 5 -1 11 4 15 5 3 10 13 9 23 0 9 10 49 22 87 11 39 23 79 25 90 6
29 13 60 15 63 2 1 4 11 5 22 1 11 4 23 5 28 2 4 4 12 5 17 2 6 4 12 5 15 15
43 61 245 63 278 0 6 4 12 8 12 4 0 6 8 4 18 -1 9 2 23 7 29 6 7 8 20 4 28 -3
8 -1 15 4 15 5 0 10 10 9 23 0 22 27 159 38 187 6 15 8 28 17 85 2 17 5 30 6
30 1 0 4 11 6 25 2 14 6 36 9 50 3 14 18 97 33 185 15 88 30 165 33 170 3 6 5
25 3 43 -1 17 1 32 5 32 4 0 8 15 8 33 1 17 4 46 8 62 4 17 8 53 10 80 1 28 5
57 8 65 7 20 27 233 27 293 0 26 3 47 8 47 13 0 4 380 -11 447 -12 57 -52 133
-69 133 -4 0 -21 13 -36 30 -16 16 -32 27 -35 24 -3 -4 -14 -3 -24 1 -29 13
-47 17 -70 17 -13 0 -23 3 -23 7 0 4 -21 6 -47 6 -27 -1 -52 2 -58 5 -5 4 -88
7 -183 6 -94 -1 -172 2 -172 5 0 4 -28 7 -62 7 -96 0 -503 34 -506 41 -1 4
-24 6 -50 4 -26 -1 -54 0 -62 4 -8 3 -37 7 -65 8 -27 1 -50 3 -50 5 0 1 -22 4
-50 6 -105 7 -151 12 -165 17 -8 3 -36 8 -61 11 -25 3 -59 10 -75 17 -16 6
-36 13 -45 14 -26 3 -98 64 -116 98 -29 57 -11 191 32 232 33 32 98 50 180 50
47 0 85 -4 85 -8z"/>
</g>
</svg>
